<!--
  - Copyright (c) 6/29/22, 12:20 PM Deschutes Design Group LLC.year. Lorem ipsum dolor sit amet, consectetur adipiscing elit.
  - Morbi non lorem porttitor neque feugiat blandit. Ut vitae ipsum eget quam lacinia accumsan.
  - Etiam sed turpis ac ipsum condimentum fringilla. Maecenas magna.
  - Proin dapibus sapien vel ante. Aliquam erat volutpat. Pellentesque sagittis ligula eget metus.
  - Vestibulum commodo. Ut rhoncus gravida arcu.
  -->

<svg version="1.2" xmlns="http://www.w3.org/2000/svg" viewBox="0 0 175 41" width="175" height="41">
	<title>PERSCOM</title>
	<style>
		.s0 { fill: none } 
		.s1 { fill: #646464;stroke: #ffffff;stroke-width: 0 } 
		.s2 { fill: #d9d9d9 } 
	</style>
	<g id="background-logo">
		<path id="Layer" class="s0" d="m-36.6-83.9h298.6v239.9h-298.6z"/>
	</g>
	<g id="text-logo-path-group">
		<g id="Layer">
			<g id="text-logo-path-0">
				<path id="Layer" fill-rule="evenodd" class="s1" d="m66.6 32.2l-5.8 1.2q3.5-15.4 4.7-23.9 3.7-1.1 5.5-1.1 1.8 0 2.8 0.6 1 0.5 1.7 1.3 1.1 1.6 1.1 4.5 0 1.9-0.7 3.7-0.6 1.7-1.8 3.1-1.1 1.4-2.6 2.2-1.6 0.8-3.2 0.8h-0.3q-0.6 2.7-1.4 7.6zm2.1-11.2q1.1-0.3 2.2-1.9 1.1-1.8 1.1-4 0-1.3-0.6-1.9-0.5-0.7-1.2-0.7-0.8 4.8-1.5 8.5zm16.1 10.7l-10.9 1.7 4.4-24 10.7-0.9q-0.3 0.7-0.4 1.4-0.2 0.8-0.4 1.4-0.1 0.7-0.2 1.3-1 0.1-2.7 0.1h-2.3l-1.2 6q1.8-0.1 3-0.1 1.3 0 1.6-0.1-0.1 1-0.2 1.9-0.1 0.9-0.3 1.9-0.4 0-1.1 0-0.8 0-1.6 0.1-0.8 0-1.8 0l-1.2 6.3 4.9-0.8zm5.9 0.2l-5.4 1.4q3.4-16.5 4.1-23.5 3.8-1.2 8.6-1.2 3.5 0 4.2 2.5 0.2 0.7 0.2 1.9 0 1.1-0.5 2.4-0.4 1.3-1.2 2.5-1.7 2.4-4.1 3.7 1.3 2.7 2.3 5.2 0.8 1.9 1.4 3.4l2.4-4.8q0.5 1 1.8 1.7 1.3 0.8 1.9 0.8 0.7 0 1.1-0.1 0.5-0.2 0.9-0.4 0.8-0.6 0.8-1.5 0-0.8-0.6-1.5-0.5-0.7-1.2-1.3-0.8-0.6-1.7-1.3-0.9-0.6-1.7-1.3-1.8-1.7-1.8-3.5 0-1.8 1-3.3 1-1.6 2.6-2.7 1.6-1.1 3.4-1.7 1.9-0.7 3.2-0.7 1.2 0 2 0.3 0.8 0.2 1.4 0.7 1.3 1 1.3 3.1 0 0.5-0.1 0.9 0 0.5-0.1 1l-4.9 1.5q0.2-0.7 0.2-1.4 0-0.7-0.4-1.2-0.3-0.4-0.7-0.4-0.4 0-0.8 0.2-0.4 0.2-0.8 0.5-1 0.8-1 1.6 0 0.9 0.5 1.4 0.5 0.6 1.1 1 0.7 0.5 1.5 1 0.8 0.5 1.5 1.3 1.6 1.8 1.6 4.9 0 3.7-2.7 6.1-2.6 2.3-6.5 2.3-2.7 0-5-2.7 0.1 0.1 0.1 0.2l-5.2 1.9q-2.5-9-2.6-10.2l-0.5 0.1q-1.1 6.1-1.6 9.2zm3.6-18.6l-1.1 5.4q1.3-0.1 3.3-1.7 2.1-1.6 2.1-2.6 0-0.9-1.8-1.1-0.6 0-1.1 0zm22.5 18.1q-1.4-2-1.4-5.3 0-3.4 0.9-6.5 0.8-3.1 2.4-5.5 1.6-2.5 3.8-4 2.1-1.5 4.7-1.5 1.7 0 2.9 1.3 1.1 1.3 1.1 3.4v0.5q0 0.2 0 0.4l-4.4 1.2q-0.4-0.8-0.9-0.8-0.6 0-1.2 0.6-0.5 0.6-1.1 1.6-0.6 1-1.1 2.2-0.5 1.3-0.9 2.5-1 2.8-1 4.5 0 1.7 1.1 1.7 0.8 0 1.7-1.1 0.9-1 1.2-2.1l3.8 1.5q-1.5 3.5-3.9 5.5-2.1 1.8-4.3 1.8-2.1 0-3.4-1.9zm11.9-4.9q0-3.8 1.8-8.1 1.7-4.4 4.5-7.3 3.1-3.1 6.4-3.1 2.8 0 4.1 2.3 1 1.8 1 5.5 0 2-0.6 4.4-0.6 2.5-1.6 4.5-0.9 2-2.2 3.7-1.3 1.6-2.7 2.7-3 2.3-5.7 2.3-2.2 0-3.5-1.6-1.5-1.9-1.5-5.3zm5-0.9q0 1.3 1.1 2 0.4 0.2 0.8 0.2 1.5 0 2.7-1 1.1-1 1.9-2.6 0.8-1.5 1.2-3.2 0.4-1.7 0.4-3.2 0-2.7-1.6-2.7-2 0-3.6 2-1.3 1.6-2.2 4.3-0.7 2.2-0.7 4.2zm14.9 7.1l-5.6 0.4q5.4-16.2 7.3-23.8 1.8 0 3.5-0.2 1.6-0.2 3.5-0.3-0.1 0.7-0.2 1.6-0.1 0.9-0.3 2-0.1 1-0.3 2.1-0.1 1-0.4 2.7-0.2 1.7-0.6 4.3h0.4q3.8-10.2 5-12.8 1.7-0.2 2.8-0.3 1-0.2 1.8-0.3 0.7-0.1 1.6-0.3-1.6 9.5-2.7 24.1l-5.8 1q0-1.1 0.3-3.8l0.4-3.9q0.3-3 0.6-4.7h-0.3q-0.4 1.4-1 3-0.6 1.6-1.2 3.2-0.5 1.6-1.1 3.2-0.6 1.5-1 2.9-1.2 0.1-2 0.1l-2 0.1 1.1-12.5h-0.5q-0.1 0.4-0.3 1.5-0.3 1-0.7 2.4-0.3 1.3-0.7 2.7-0.4 1.5-0.8 2.7-0.6 2.1-0.8 2.9z"/>
			</g>
		</g>
	</g>
	<g id="shape-4ba72ef2-936a-49d3-93b3-1ec8e54791af">
		<g id="Layer">
			<g id="path-1">
				<path id="Layer" class="s2" d="m41.7 12.2l-2.4 14.7c-0.7 4-3 7.6-6.3 9.4l-3.5 2.1-3.5-2.1c-3.2-1.8-5.6-5.4-6.2-9.4l-2.5-14.7 12.2-4.7zm-3.4-5.8l-0.8-0.8 1-0.1 0.5-1 0.5 1 1 0.1-0.7 0.8 0.1 1-0.9-0.5-0.9 0.5zm-9.8-3.5l-1.1-1.1 1.5-0.2 0.7-1.3 0.6 1.3 1.5 0.2-1.1 1.1 0.3 1.5-1.3-0.7-1.4 0.7zm-9.1 3.5l-0.8-0.8 1.1-0.1 0.4-1 0.5 1 1.1 0.1-0.8 0.8 0.2 1-1-0.5-0.9 0.5z"/>
			</g>
			<g id="path-2">
				<path id="Layer" fill-rule="evenodd" class="s2" d="m42.5 18.8l-0.2 1.1 12.4-3.8-3.5 6.3-9.8 3-0.1 1.1 9.2-2.8-3.5 6.2-7.6 2.4c-1.3 2.4-3.2 4.4-5.4 5.7l-4.5 2.6-4.4-2.6c-2.3-1.3-4.1-3.3-5.4-5.7l-7.7-2.4-3.5-6.2 9.3 2.8-0.2-1.1-9.8-3-3.5-6.3 12.4 3.8-0.2-1.1-12.9-4-3.5-6.3 15.5 4.8-0.4-2.3 14.3-5.6 14.3 5.6-0.4 2.3 15.5-4.8-3.5 6.3zm-2.2 8.2l2.5-15.5-13.3-5.1-13.3 5.1 2.6 15.5c0.7 4.4 3.2 8.2 6.7 10.2l4 2.3 4-2.3c3.5-2 6.1-5.8 6.8-10.2z"/>
			</g>
		</g>
	</g>
</svg>