<?xml version="1.0" encoding="UTF-8" standalone="no" ?>
<!DOCTYPE svg PUBLIC "-//W3C//DTD SVG 1.1//EN" "http://www.w3.org/Graphics/SVG/1.1/DTD/svg11.dtd">
<svg xmlns="http://www.w3.org/2000/svg" xmlns:xlink="http://www.w3.org/1999/xlink" version="1.1" width="1280" height="1024" viewBox="0 0 1280 1024" xml:space="preserve">
<desc>Created with Fabric.js 4.4.0</desc>
<defs>
</defs>
<g transform="matrix(1 0 0 1 640 512)" id="background-logo"  >
<rect style="stroke: none; stroke-width: 0; stroke-dasharray: none; stroke-linecap: butt; stroke-dashoffset: 0; stroke-linejoin: miter; stroke-miterlimit: 4; fill: rgb(255,255,255); fill-opacity: 0; fill-rule: nonzero; opacity: 1;"  paint-order="stroke"  x="-640" y="-512" rx="0" ry="0" width="1280" height="1024" />
</g>
<g transform="matrix(1.9211538461538462 0 0 1.9211538461538462 640 577.4005599176392)" id="logo-logo"  >
<g style=""  paint-order="stroke"   >
		<g transform="matrix(2.064040780296491 0 0 1.6323583126376047 0 1)"  >
<g style=""  paint-order="stroke"   >
		<g transform="matrix(1 0 0 1 0 0)"  >
<path style="stroke: none; stroke-width: 1; stroke-dasharray: none; stroke-linecap: butt; stroke-dashoffset: 0; stroke-linejoin: miter; stroke-miterlimit: 4; fill: rgb(217,217,217); fill-rule: nonzero; opacity: 1;"  paint-order="stroke"  transform=" translate(-100, -7.28)" d="M 156.65 8.18 C 181.06 8.18 187.08 6.35 187.08 6.35 L 106.28000000000002 6.35 L 104.73000000000002 4.789999999999999 L 169.57000000000002 4.789999999999999 C 194 4.79 200 3 200 3 L 102.9 3 L 99.9 0 L 97 3 L 0 3 C 0 3 6 4.79 30.43 4.79 L 95.14 4.79 L 93.58 6.35 L 12.92 6.35 C 12.92 6.35 18.92 8.18 43.35 8.18 L 93.59 8.18 L 95.14 9.73 L 26.5 9.73 C 26.5 9.73 32.5 11.56 56.93 11.56 L 97 11.56 L 100 14.56 L 100 14.56 L 103 11.56 L 143.17000000000002 11.56 C 167.58 11.56 173.60000000000002 9.73 173.60000000000002 9.73 L 104.73 9.73 L 106.28 8.18 Z M 99.93 12.09 L 95.11 7.26 L 99.93 2.4399999999999995 L 104.76 7.26 Z" stroke-linecap="round" />
</g>
</g>
</g>
		<g transform="matrix(0.20489934333232676 0 0 0.20489934333232676 0 0)"  >
<g style=""  paint-order="stroke"   >
		<g transform="matrix(1 0 0 1 0 0)"  >
<polygon style="stroke: none; stroke-width: 1; stroke-dasharray: none; stroke-linecap: butt; stroke-dashoffset: 0; stroke-linejoin: miter; stroke-miterlimit: 4; fill: rgb(100,100,100); fill-rule: nonzero; opacity: 1;"  paint-order="stroke"  points="100,-22.430000000000007 30.900000000000006,-32.46 0,-95 -30.900000000000006,-32.46 -100,-22.430000000000007 -50,26.260000000000005 -61.8,95 0,62.55000000000001 61.80000000000001,95 50,26.260000000000005 100,-22.430000000000007 " />
</g>
</g>
</g>
</g>
</g>
<g transform="matrix(1.9211538461538462 0 0 1.9211538461538462 643.3107822077824 475.4162970345177)" id="text-logo-path-group"  >
<g style=""  paint-order="stroke"   >
		<g transform="matrix(1 0 0 1 5.684342e-14 0)" id="text-logo-path-0"  >
<filter id="SVGID_38558" y="-65.91368227731864%" height="231.82736455463728%" x="-26.56491055309371%" width="153.12982110618742%" >
	<feGaussianBlur in="SourceAlpha" stdDeviation="10"></feGaussianBlur>
	<feOffset dx="0" dy="0" result="oBlur" ></feOffset>
	<feFlood flood-color="rgb(77,85,98)" flood-opacity="1"/>
	<feComposite in2="oBlur" operator="in" />
	<feMerge>
		<feMergeNode></feMergeNode>
		<feMergeNode in="SourceGraphic"></feMergeNode>
	</feMerge>
</filter>
<path style="stroke: rgb(255,255,255); stroke-width: 0; stroke-dasharray: none; stroke-linecap: butt; stroke-dashoffset: 0; stroke-linejoin: miter; stroke-miterlimit: 4; fill: rgb(255,255,255); fill-rule: nonzero; opacity: 1;filter: url(#SVGID_38558);"  paint-order="stroke"  transform=" translate(-154.97500000000002, 20.6)" d="M 20.57 0 L 2.65 0 L 2.65 -0.58 L 3.4 -0.58 Q 4.96 -0.58 6.05 -1.67 Q 7.14 -2.77 7.17 -4.29 L 7.17 -4.29 L 7.17 -37.31 Q 7.17 -38.78 6.05 -39.74 Q 4.93 -40.71 3.43 -40.71 L 3.43 -40.71 L 2.68 -40.71 L 2.68 -41.31 L 22.33 -41.31 Q 29.56 -41.31 33.2 -38.21 Q 36.85 -35.12 37.02 -29.99 L 37.02 -29.99 Q 37.02 -29.73 37.02 -29.5 L 37.02 -29.5 Q 37.02 -27.31 36.33 -25.32 L 36.33 -25.32 Q 35.55 -23.13 34.15 -21.56 Q 32.76 -19.99 30.83 -18.96 Q 28.9 -17.92 26.79 -17.63 L 26.79 -17.63 Q 26.01 -17.52 25.18 -17.52 L 25.18 -17.52 Q 23.85 -17.52 22.41 -17.8 L 22.41 -17.8 Q 20.11 -18.32 18.06 -19.68 L 18.06 -19.68 L 18.06 -20.22 L 18.44 -20.22 Q 18.84 -20.19 19.5 -20.28 Q 20.17 -20.37 20.99 -20.55 Q 21.81 -20.74 22.73 -21.22 Q 23.65 -21.69 24.49 -22.38 Q 25.32 -23.08 26.06 -24.26 Q 26.79 -25.44 27.2 -26.96 L 27.2 -26.96 Q 27.57 -28.41 27.57 -29.93 L 27.57 -29.93 Q 27.57 -30.22 27.57 -30.51 L 27.57 -30.51 Q 27.43 -34.34 25.44 -36.57 Q 23.45 -38.81 19.96 -38.81 L 19.96 -38.81 L 16.05 -38.81 L 16.05 -4.29 Q 16.08 -2.77 17.17 -1.67 Q 18.26 -0.58 19.82 -0.58 L 19.82 -0.58 L 20.57 -0.58 L 20.57 0 Z M 71.53 0 L 40.99 0 L 40.99 -0.58 L 41.74 -0.58 Q 43.3 -0.58 44.39 -1.67 Q 45.49 -2.77 45.52 -4.29 L 45.52 -4.29 L 45.52 -37.19 Q 45.4 -38.66 44.32 -39.68 Q 43.24 -40.71 41.74 -40.71 L 41.74 -40.71 L 40.99 -40.71 L 40.99 -41.31 L 63.61 -41.31 Q 65.45 -41.34 67.63 -41.67 Q 69.8 -42 70.67 -42.38 L 70.67 -42.38 L 70.67 -32.06 L 70.06 -32.06 L 70.06 -32.76 Q 70.06 -35.41 68.51 -37.03 Q 66.95 -38.66 64.3 -38.78 L 64.3 -38.78 L 54.36 -38.78 L 54.36 -21.61 L 62.2 -21.61 Q 64.39 -21.64 65.78 -23.08 Q 67.18 -24.52 67.18 -26.68 L 67.18 -26.68 L 67.18 -27.17 L 67.76 -27.2 L 67.76 -13.54 L 67.18 -13.57 L 67.18 -14.06 Q 67.18 -16.19 65.78 -17.63 Q 64.39 -19.07 62.26 -19.13 L 62.26 -19.13 L 54.36 -19.13 L 54.36 -2.54 L 62.11 -2.54 Q 66.43 -2.54 69.34 -5.03 Q 72.25 -7.52 73.66 -12.04 L 73.66 -12.04 L 74.24 -12.04 L 71.53 0 Z M 96.11 0 L 78.16 0 L 78.16 -0.6 L 78.91 -0.6 Q 80.43 -0.6 81.54 -1.67 Q 82.65 -2.74 82.68 -4.26 L 82.68 -4.26 L 82.68 -37.02 Q 82.65 -38.55 81.54 -39.63 Q 80.43 -40.71 78.91 -40.71 L 78.91 -40.71 L 78.16 -40.71 L 78.16 -41.31 L 98.41 -41.31 Q 100.63 -41.31 102.62 -40.95 Q 104.6 -40.59 106.43 -39.74 Q 108.26 -38.89 109.57 -37.64 Q 110.88 -36.39 111.66 -34.47 Q 112.44 -32.55 112.44 -30.16 L 112.44 -30.16 Q 112.44 -28.23 111.85 -26.4 Q 111.26 -24.57 110.12 -22.96 Q 108.98 -21.35 107.08 -20.27 Q 105.18 -19.19 102.76 -18.96 L 102.76 -18.96 Q 104.52 -18.38 106.1 -16.93 Q 107.69 -15.47 108.78 -13.74 L 108.78 -13.74 Q 108.98 -13.4 109.89 -12 Q 110.8 -10.6 112.28 -8.46 Q 113.77 -6.31 114.74 -5.07 L 114.74 -5.07 Q 116.7 -2.59 118.24 -1.61 Q 119.79 -0.63 122.03 -0.6 L 122.03 -0.6 L 122.03 0 L 116.3 0 Q 111.14 0 107.76 -1.37 Q 104.37 -2.74 102.44 -6.11 L 102.44 -6.11 Q 101.03 -8.56 97.52 -16.22 L 97.52 -16.22 Q 95.82 -19.79 93.51 -20.19 L 93.51 -20.19 L 93.51 -20.77 L 95.33 -20.77 Q 98.01 -20.8 100.01 -22.38 Q 102.01 -23.97 102.76 -27.57 L 102.76 -27.57 Q 102.99 -28.81 102.99 -29.99 L 102.99 -29.99 Q 102.99 -30.22 102.99 -30.45 L 102.99 -30.45 Q 102.82 -34.54 100.96 -36.59 Q 99.1 -38.63 96.05 -38.69 L 96.05 -38.69 Q 95.18 -38.72 93.5 -38.72 Q 91.81 -38.72 91.55 -38.72 L 91.55 -38.72 L 91.55 -4.29 Q 91.58 -2.77 92.69 -1.69 Q 93.8 -0.6 95.36 -0.6 L 95.36 -0.6 L 96.08 -0.6 L 96.11 0 Z M 122.21 -7.72 L 122.21 -7.72 Q 122.67 -10.77 123.88 -12.76 L 123.88 -12.76 L 124.4 -12.76 Q 124.37 -12.3 124.34 -11.84 L 124.34 -11.84 Q 124.34 -7.72 127.16 -4.81 L 127.16 -4.81 Q 130.21 -1.67 135.26 -1.67 L 135.26 -1.67 Q 135.4 -1.67 135.52 -1.67 L 135.52 -1.67 Q 139.29 -1.73 141.48 -3.6 Q 143.67 -5.47 143.67 -8.3 L 143.67 -8.3 Q 143.67 -10.03 142.56 -11.36 Q 141.45 -12.7 138.94 -14.38 L 138.94 -14.38 L 128.66 -21.2 Q 122.96 -25.03 122.96 -30.65 L 122.96 -30.65 Q 122.96 -31.23 123.01 -31.8 L 123.01 -31.8 Q 123.39 -36.47 126.67 -39.29 Q 129.96 -42.12 135.43 -42.12 L 135.43 -42.12 Q 138.71 -42.12 143.47 -41.51 L 143.47 -41.51 L 147.18 -41.51 L 146.41 -32.84 L 145.83 -32.84 Q 145.83 -35.9 143.55 -37.77 Q 141.28 -39.64 137.53 -39.64 L 137.53 -39.64 Q 134.13 -39.64 132.03 -38.03 Q 129.93 -36.41 129.81 -33.97 L 129.81 -33.97 Q 129.81 -33.85 129.81 -33.71 L 129.81 -33.71 Q 129.81 -32.24 130.73 -31.11 L 130.73 -31.11 Q 131.77 -29.87 133.9 -28.49 L 133.9 -28.49 L 145.17 -21.17 Q 150.5 -17.75 150.5 -12.13 L 150.5 -12.13 Q 150.5 -11.75 150.47 -11.38 L 150.47 -11.38 Q 150.21 -5.62 146.09 -2.39 Q 141.97 0.84 134.88 0.84 L 134.88 0.84 Q 130.88 0.84 127.48 -0.14 Q 124.08 -1.12 122.47 -2.77 L 122.47 -2.77 Q 122.03 -3.92 122.03 -5.5 L 122.03 -5.5 Q 122.03 -6.51 122.21 -7.72 Z M 155.83 -20.71 L 155.83 -20.71 Q 155.83 -30.62 162.28 -36.37 Q 168.73 -42.12 179.94 -42.12 L 179.94 -42.12 Q 188.41 -42.12 194.6 -38.92 L 194.6 -38.92 L 194.72 -28.81 L 194.23 -28.81 Q 191.2 -39.64 180.51 -39.64 L 180.51 -39.64 Q 173.51 -39.64 169.48 -34.58 Q 165.45 -29.53 165.45 -20.83 L 165.45 -20.83 Q 165.45 -12.1 169.31 -6.96 Q 173.17 -1.81 179.77 -1.64 L 179.77 -1.64 Q 186.71 -1.64 190.31 -5.16 Q 193.91 -8.67 195.26 -17.23 L 195.26 -17.23 L 195.75 -17.23 L 196.33 -7.06 Q 191.55 0.84 179.77 0.84 L 179.77 0.84 Q 172.53 0.81 167.15 -1.74 Q 161.76 -4.29 158.79 -9.18 Q 155.83 -14.06 155.83 -20.71 Z M 208.34 -4.96 Q 202.06 -10.75 202.06 -20.66 Q 202.06 -30.57 208.34 -36.34 Q 214.62 -42.12 225.28 -42.12 Q 235.94 -42.12 242.21 -36.34 Q 248.47 -30.57 248.47 -20.66 Q 248.47 -10.75 242.21 -4.96 Q 235.94 0.84 225.28 0.84 Q 214.62 0.84 208.34 -4.96 Z M 215.39 -34.54 Q 211.74 -29.44 211.74 -20.66 Q 211.74 -11.87 215.39 -6.76 Q 219.03 -1.64 225.28 -1.64 Q 231.53 -1.64 235.16 -6.76 Q 238.79 -11.87 238.79 -20.66 Q 238.79 -29.44 235.16 -34.54 Q 231.53 -39.64 225.28 -39.64 Q 219.03 -39.64 215.39 -34.54 Z M 262.27 0 L 249.94 0 L 249.94 -0.58 L 250.87 -0.58 Q 252.51 -0.58 253.73 -1.58 Q 254.96 -2.59 255.19 -4.29 L 255.19 -4.29 L 260.08 -42.12 L 260.63 -42.12 L 278.92 -12.01 L 296.47 -42.12 L 297.02 -42.12 L 302.06 -4.29 Q 302.35 -2.59 303.54 -1.6 Q 304.74 -0.6 306.35 -0.6 L 306.35 -0.6 L 307.3 -0.6 L 307.3 0 L 289.56 0 L 289.56 -0.55 L 290.48 -0.55 Q 291.43 -0.52 292.18 -1.33 L 292.18 -1.33 Q 292.81 -2.02 292.81 -2.82 L 292.81 -2.82 Q 292.81 -2.94 292.78 -3.08 L 292.78 -3.08 L 290.45 -24.46 L 279.39 -5.33 Q 279.13 -4.93 278.77 -4.25 Q 278.41 -3.57 277.77 -1.83 Q 277.14 -0.09 277.11 1.18 L 277.11 1.18 L 276.56 1.18 L 261.38 -24.31 L 259.05 -3.08 Q 259.02 -2.97 259.02 -2.82 L 259.02 -2.82 Q 259.05 -2.02 259.68 -1.33 L 259.68 -1.33 Q 260.43 -0.52 261.35 -0.55 L 261.35 -0.55 L 262.27 -0.55 L 262.27 0 Z" stroke-linecap="round" />
</g>
</g>
</g>
</svg>