<?xml version="1.0" encoding="utf-8"?>
<svg xmlns="http://www.w3.org/2000/svg" viewBox="0 0 210 150">
  <g fill="#F3C463" stroke="#854d0e" stroke-width="1.5">
    <polygon points="35,55 41,73 60,73 45,84 51,102 35,91 19,102 25,84 10,73 29,73"/>
    <polygon points="85,55 91,73 110,73 95,84 101,102 85,91 69,102 75,84 60,73 79,73"/>
    <polygon points="135,55 141,73 160,73 145,84 151,102 135,91 119,102 125,84 110,73 129,73"/>
    <polygon points="185,55 191,73 210,73 195,84 201,102 185,91 169,102 175,84 160,73 179,73"/>
  </g>
</svg>
